<svg width="25" height="24" viewBox="0 0 25 24" fill="none" xmlns="http://www.w3.org/2000/svg">
<path d="M21.6666 10C21.6666 17 12.6666 23 12.6666 23C12.6666 23 3.66663 17 3.66663 10C3.66663 7.61305 4.61484 5.32387 6.30266 3.63604C7.99049 1.94821 10.2797 1 12.6666 1C15.0536 1 17.3428 1.94821 19.0306 3.63604C20.7184 5.32387 21.6666 7.61305 21.6666 10Z" fill="white"/>
<path d="M12.6666 13C14.3235 13 15.6666 11.6569 15.6666 10C15.6666 8.34315 14.3235 7 12.6666 7C11.0098 7 9.66663 8.34315 9.66663 10C9.66663 11.6569 11.0098 13 12.6666 13Z" fill="#002B44"/>
</svg>
