<svg width="50" height="50" viewBox="0 0 50 50" fill="none" xmlns="http://www.w3.org/2000/svg">
<rect width="50" height="50" rx="25" fill="#66C7FF"/>
<path d="M20.467 33L20.427 31.22L24.687 26.68C25.3137 26.0267 25.7737 25.46 26.067 24.98C26.3737 24.5 26.527 24.0067 26.527 23.5C26.527 22.9667 26.3537 22.5267 26.007 22.18C25.6737 21.82 25.2404 21.64 24.707 21.64C23.6937 21.64 22.8937 22.1267 22.307 23.1L20.367 21.72C21.3137 19.9867 22.827 19.12 24.907 19.12C26.107 19.12 27.1337 19.4933 27.987 20.24C28.8537 20.9733 29.287 21.9533 29.287 23.18C29.287 23.9933 29.1204 24.7467 28.787 25.44C28.467 26.12 27.8737 26.9067 27.007 27.8L24.447 30.48L24.467 30.54H29.407V33H20.467Z" fill="white"/>
</svg>
