<svg width="50" height="50" viewBox="0 0 50 50" fill="none" xmlns="http://www.w3.org/2000/svg">
<rect width="50" height="50" rx="25" fill="#F4877A"/>
<path d="M24.9001 33.18C23.7134 33.18 22.6801 32.9 21.8001 32.34C20.9334 31.7667 20.3267 31.0333 19.9801 30.14L22.3201 29.16C22.7201 30.2 23.5134 30.72 24.7001 30.72C25.2734 30.72 25.7534 30.5533 26.1401 30.22C26.5401 29.8867 26.7401 29.4467 26.7401 28.9C26.7401 28.3667 26.5401 27.9267 26.1401 27.58C25.7401 27.22 25.1801 27.04 24.4601 27.04H23.5001V24.84H24.7001C25.2734 24.84 25.7067 24.6867 26.0001 24.38C26.3067 24.0733 26.4601 23.6867 26.4601 23.22C26.4601 22.74 26.2867 22.3467 25.9401 22.04C25.5934 21.72 25.1667 21.56 24.6601 21.56C23.7667 21.56 23.1001 21.9467 22.6601 22.72L20.4801 21.54C20.8134 20.8067 21.3534 20.22 22.1001 19.78C22.8601 19.3267 23.7334 19.1 24.7201 19.1C25.9867 19.1 27.0401 19.4333 27.8801 20.1C28.7201 20.7533 29.1401 21.6467 29.1401 22.78C29.1401 24.14 28.5467 25.1667 27.3601 25.86V25.92C28.8134 26.5867 29.5401 27.7 29.5401 29.26C29.5401 30.4333 29.1001 31.38 28.2201 32.1C27.3534 32.82 26.2467 33.18 24.9001 33.18Z" fill="white"/>
</svg>
